<svg xmlns="http://www.w3.org/2000/svg" width="24" height="24" aria-hidden="true" style="pointer-events:none;display:inherit;width:100%;height:100%" viewBox="0 0 24 24"><path d="m13.467 1.19-8 4.7a5 5 0 0 0-.255 8.46 5 5 0 0 0 5.32 8.462l8-4.7a5 5 0 0 0 .258-8.462 5 5 0 0 0 1.641-6.464l-.12-.217a5 5 0 0 0-6.844-1.78m5.12 2.79a3 3 0 0 1-1.067 4.107l-1.327.78a1 1 0 0 0 .096 1.775l.943.423a3 3 0 0 1 .288 5.323l-8 4.7a3 3 0 0 1-3.039-5.173l1.327-.78a1 1 0 0 0-.097-1.775l-.942-.423a3 3 0 0 1-.288-5.323l8-4.7a3 3 0 0 1 4.106 1.066M15 12l-5-3v6z"/></svg>