<svg xmlns="http://www.w3.org/2000/svg" width="93" height="20" aria-hidden="true" style="pointer-events:none;display:inherit;width:100%;height:100%" viewBox="0 0 93 20"><path fill="#f03" d="M14.485 20s9.085 0 11.338-.6a3.62 3.62 0 0 0 2.558-2.53C29 14.65 29 9.98 29 9.98s0-4.64-.62-6.84A3.55 3.55 0 0 0 25.824.61C23.57 0 14.485 0 14.485 0S5.42 0 3.177.61A3.65 3.65 0 0 0 .6 3.14C0 5.34 0 9.98 0 9.98s0 4.67.599 6.89a3.72 3.72 0 0 0 2.578 2.53c2.243.6 11.308.6 11.308.6"/><path fill="#fff" d="m19 10-7.5-4.25v8.5z"/><path d="M37.138 18.9v-5.46l3.47-11.34h-2.59l-1.32 5.15c-.3 1.18-.57 2.41-.77 3.55h-.16c-.11-1-.43-2.31-.75-3.57l-1.28-5.13h-2.59l3.42 11.34v5.46zM44.1 6.3c-3.03 0-4.07 1.75-4.07 5.52v1.79c0 3.38.65 5.5 4.01 5.5 3.31 0 4.02-2.02 4.02-5.5v-1.79c0-3.37-.68-5.52-3.96-5.52m1.29 8.42c0 1.64-.29 2.67-1.34 2.67-1.03 0-1.32-1.04-1.32-2.67v-4.04c0-1.4.2-2.65 1.32-2.65 1.18 0 1.34 1.32 1.34 2.65zM52.271 19.09c1.46 0 2.37-.61 3.12-1.71h.11l.11 1.52h1.99V6.54h-2.64v9.93c-.28.49-.93.85-1.54.85-.77 0-1.01-.61-1.01-1.63V6.54h-2.63v9.27c0 2.01.58 3.28 2.49 3.28M62.826 18.9V4.15h3.04V2.1h-8.69v2.05h3.04V18.9zM67.873 19.09c1.46 0 2.37-.61 3.12-1.71h.11l.11 1.52h1.99V6.54h-2.64v9.93c-.28.49-.93.85-1.54.85-.77 0-1.01-.61-1.01-1.63V6.54h-2.63v9.27c0 2.01.58 3.28 2.49 3.28M80.674 6.27c-1.28 0-2.2.56-2.81 1.47h-.13c.08-1.2.14-2.22.14-3.03V1.44h-2.55l-.01 10.74.01 6.72h2.22l.19-1.2h.07c.59.81 1.5 1.32 2.71 1.32 2.01 0 2.87-1.73 2.87-5.41V11.7c0-3.44-.39-5.43-2.71-5.43m.09 7.34c0 2.3-.34 3.67-1.41 3.67-.5 0-1.19-.24-1.5-.69V9.24c.27-.7.87-1.21 1.54-1.21 1.08 0 1.37 1.31 1.37 3.7zM92.652 11.5c0-2.98-.3-5.19-3.73-5.19-3.23 0-3.95 2.15-3.95 5.31v2.17c0 3.08.66 5.32 3.87 5.32 2.54 0 3.85-1.27 3.7-3.73l-2.25-.12c-.03 1.52-.38 2.14-1.39 2.14-1.27 0-1.33-1.21-1.33-3.01v-.84h5.08zm-3.79-3.53c1.22 0 1.31 1.15 1.31 3.1v1.01h-2.6v-1.01c0-1.93.08-3.1 1.29-3.1"/></svg>